<?xml version="1.0" encoding="UTF-8"?>
<svg xmlns="http://www.w3.org/2000/svg" xmlns:xlink="http://www.w3.org/1999/xlink" viewBox="0 0 555.63 555.63">
  <defs>
    <style>
      .cls-1 {
        isolation: isolate;
      }

      .cls-2, .cls-3, .cls-4, .cls-5, .cls-6, .cls-7 {
        stroke-width: 0px;
      }

      .cls-3 {
        fill: #1a1a1a;
      }

      .cls-4 {
        fill: url(#radial-gradient-3);
      }

      .cls-4, .cls-5, .cls-8, .cls-7 {
        mix-blend-mode: screen;
      }

      .cls-5 {
        fill: url(#radial-gradient-2);
        opacity: .5;
      }

      .cls-6, .cls-8 {
        fill: none;
      }

      .cls-8 {
        opacity: .03;
        stroke: #fff;
        stroke-miterlimit: 10;
        stroke-width: 2px;
      }

      .cls-7 {
        fill: url(#radial-gradient);
        opacity: .15;
      }
    </style>
    <radialGradient id="radial-gradient" cx="277.82" cy="277.82" fx="277.82" fy="277.82" r="120.93" gradientUnits="userSpaceOnUse">
      <stop offset="0" stop-color="#230000"/>
      <stop offset=".73" stop-color="#93432a"/>
      <stop offset="1" stop-color="#230000"/>
    </radialGradient>
    <radialGradient id="radial-gradient-2" cx="277.82" cy="277.82" fx="277.82" fy="277.82" r="60.46" gradientUnits="userSpaceOnUse">
      <stop offset=".15" stop-color="#fff"/>
      <stop offset=".21" stop-color="#e1d0d1"/>
      <stop offset=".29" stop-color="#bf9a9c"/>
      <stop offset=".36" stop-color="#a67275"/>
      <stop offset=".42" stop-color="#96595d"/>
      <stop offset=".45" stop-color="#915155"/>
      <stop offset=".56" stop-color="#6b3538"/>
      <stop offset=".68" stop-color="#441819"/>
      <stop offset=".79" stop-color="#2b0606"/>
      <stop offset=".85" stop-color="#230000"/>
      <stop offset=".86" stop-color="#270201"/>
      <stop offset=".86" stop-color="#330805"/>
      <stop offset=".87" stop-color="#48120b"/>
      <stop offset=".88" stop-color="#652014"/>
      <stop offset=".89" stop-color="#8a331f"/>
      <stop offset=".9" stop-color="#b8492c"/>
      <stop offset=".9" stop-color="#d65836"/>
      <stop offset=".9" stop-color="#c95132"/>
      <stop offset=".91" stop-color="#9d3c24"/>
      <stop offset=".93" stop-color="#772919"/>
      <stop offset=".94" stop-color="#581a10"/>
      <stop offset=".95" stop-color="#410e09"/>
      <stop offset=".97" stop-color="#300603"/>
      <stop offset=".98" stop-color="#260100"/>
      <stop offset="1" stop-color="#230000"/>
    </radialGradient>
    <radialGradient id="radial-gradient-3" cx="277.82" cy="277.82" fx="277.82" fy="277.82" r="50.39" gradientUnits="userSpaceOnUse">
      <stop offset=".15" stop-color="#fff"/>
      <stop offset=".28" stop-color="#c2c2c2"/>
      <stop offset=".43" stop-color="#878787"/>
      <stop offset=".56" stop-color="#575757"/>
      <stop offset=".69" stop-color="#313131"/>
      <stop offset=".81" stop-color="#161616"/>
      <stop offset=".92" stop-color="#050505"/>
      <stop offset="1" stop-color="#000"/>
    </radialGradient>
  </defs>
  <g class="cls-1">
    <g id="Layer_1" data-name="Layer 1">
      <g>
        <path class="cls-3" d="m253.66,539.9c-64.11,0-124.38-24.96-169.71-70.29-45.33-45.33-70.29-105.6-70.29-169.71s24.96-124.38,70.29-169.71S189.55,59.9,253.66,59.9s124.38,24.96,169.71,70.29c45.33,45.33,70.29,105.6,70.29,169.71s-24.96,124.38-70.29,169.71c-45.33,45.33-105.6,70.29-169.71,70.29Z"/>
        <path class="cls-2" d="m253.66,69.9c31.06,0,61.18,6.08,89.52,18.07,27.39,11.58,51.99,28.17,73.11,49.3,21.13,21.13,37.72,45.73,49.3,73.11,11.99,28.34,18.07,58.46,18.07,89.52s-6.08,61.18-18.07,89.52c-11.58,27.39-28.17,51.99-49.3,73.11s-45.73,37.72-73.11,49.3c-28.34,11.99-58.46,18.07-89.52,18.07s-61.18-6.08-89.52-18.07c-27.39-11.58-51.99-28.17-73.11-49.3-21.13-21.13-37.72-45.73-49.3-73.11-11.99-28.34-18.07-58.46-18.07-89.52s6.08-61.18,18.07-89.52c11.58-27.39,28.17-51.99,49.3-73.11,21.13-21.13,45.73-37.72,73.11-49.3,28.34-11.99,58.46-18.07,89.52-18.07m0-20C115.58,49.9,3.66,161.83,3.66,299.9s111.93,250,250,250,250-111.93,250-250S391.73,49.9,253.66,49.9h0Z"/>
      </g>
      <g>
        <line class="cls-6" x1="277.82" y1="277.82" x2="337.7" y2="286.2"/>
        <circle class="cls-6" cx="277.82" cy="277.82" r="50.39"/>
        <circle class="cls-6" cx="277.82" cy="277.82" r="60.46"/>
        <polyline class="cls-6" points="277.82 277.82 359.84 511.15 277.82 277.82 195.79 44.48 277.82 277.82 44.48 359.84 277.82 277.82 511.15 195.79 277.82 277.82 239.36 466.74 277.82 277.82 316.27 88.9 277.82 277.82 88.9 239.36 277.82 277.82 466.74 316.27 277.82 277.82 370.7 437.21 277.82 277.82 184.93 118.43 277.82 277.82 118.43 370.7 277.82 277.82 437.21 184.93 277.82 277.82 183.79 555.31 277.82 277.82 371.84 .32 277.82 277.82 .32 183.79 277.82 277.82 555.31 371.84 277.82 277.82 291.19 367.36 277.82 277.82 264.44 188.27 277.82 277.82 188.27 291.19 277.82 277.82 367.36 264.44 277.82 277.82 345.62 491.89 277.82 277.82 210.01 63.75 277.82 277.82 63.75 345.62 277.82 277.82 491.89 210.01 277.82 277.82 301.33 504.37 277.82 277.82 254.31 51.26 277.82 277.82 51.26 301.33 277.82 277.82 504.37 254.31 277.82 277.82 240.57 372.94 277.82 277.82 315.06 182.69 277.82 277.82 182.69 240.57 277.82 277.82 372.94 315.06 277.82 277.82 382.14 520.24 277.82 277.82 173.49 35.39 277.82 277.82 35.39 382.14 277.82 277.82 520.24 173.49 277.82 277.82 254.32 335.66 277.82 277.82 301.31 219.97 277.82 277.82 219.97 254.32 277.82 277.82 335.66 301.31 277.82 277.82 255.23 514.39 277.82 277.82 300.4 41.24 277.82 277.82 41.24 255.23 277.82 277.82 514.39 300.4 277.82 277.82 278.93 297.07 277.82 277.82 276.7 258.57 277.82 277.82 258.57 278.93 277.82 277.82 297.07 276.7 277.82 277.82 271.15 321.77 277.82 277.82 284.48 233.87 277.82 277.82 233.87 271.15 277.82 277.82 321.77 284.48 277.82 277.82 286.07 338.09 277.82 277.82 269.57 217.54 277.82 277.82 217.54 286.07 277.82 277.82 338.09 269.57 277.82 277.82 411.41 537.26 277.82 277.82 144.23 18.37 277.82 277.82 18.37 411.41 277.82 277.82 537.26 144.23"/>
        <circle class="cls-7" cx="277.82" cy="277.82" r="120.93"/>
        <circle class="cls-5" cx="277.82" cy="277.82" r="60.46"/>
        <circle class="cls-4" cx="277.82" cy="277.82" r="50.39"/>
        <polyline class="cls-8" points="277.82 277.82 359.84 511.15 277.82 277.82 195.79 44.48 277.82 277.82 44.48 359.84 277.82 277.82 511.15 195.79 277.82 277.82 239.36 466.74 277.82 277.82 316.27 88.9 277.82 277.82 88.9 239.36 277.82 277.82 466.74 316.27 277.82 277.82 370.7 437.21 277.82 277.82 184.93 118.43 277.82 277.82 118.43 370.7 277.82 277.82 437.21 184.93 277.82 277.82 183.79 555.31 277.82 277.82 371.84 .32 277.82 277.82 .32 183.79 277.82 277.82 555.31 371.84 277.82 277.82 291.19 367.36 277.82 277.82 264.44 188.27 277.82 277.82 188.27 291.19 277.82 277.82 367.36 264.44 277.82 277.82 345.62 491.89 277.82 277.82 210.01 63.75 277.82 277.82 63.75 345.62 277.82 277.82 491.89 210.01 277.82 277.82 301.33 504.37 277.82 277.82 254.31 51.26 277.82 277.82 51.26 301.33 277.82 277.82 504.37 254.31 277.82 277.82 240.57 372.94 277.82 277.82 315.06 182.69 277.82 277.82 182.69 240.57 277.82 277.82 372.94 315.06 277.82 277.82 382.14 520.24 277.82 277.82 173.49 35.39 277.82 277.82 35.39 382.14 277.82 277.82 520.24 173.49 277.82 277.82 254.32 335.66 277.82 277.82 301.31 219.97 277.82 277.82 219.97 254.32 277.82 277.82 335.66 301.31 277.82 277.82 255.23 514.39 277.82 277.82 300.4 41.24 277.82 277.82 41.24 255.23 277.82 277.82 514.39 300.4 277.82 277.82 278.93 297.07 277.82 277.82 276.7 258.57 277.82 277.82 258.57 278.93 277.82 277.82 297.07 276.7 277.82 277.82 271.15 321.77 277.82 277.82 284.48 233.87 277.82 277.82 233.87 271.15 277.82 277.82 321.77 284.48 277.82 277.82 286.07 338.09 277.82 277.82 269.57 217.54 277.82 277.82 217.54 286.07 277.82 277.82 338.09 269.57 277.82 277.82 411.41 537.26 277.82 277.82 144.23 18.37 277.82 277.82 18.37 411.41 277.82 277.82 537.26 144.23"/>
      </g>
    </g>
  </g>
</svg>